<?xml version="1.0" standalone="no"?>
<!DOCTYPE svg PUBLIC "-//W3C//DTD SVG 20010904//EN"
 "http://www.w3.org/TR/2001/REC-SVG-20010904/DTD/svg10.dtd">
<svg version="1.0" xmlns="http://www.w3.org/2000/svg"
 width="279.000000pt" height="279.000000pt" viewBox="0 0 279.000000 279.000000"
 preserveAspectRatio="xMidYMid meet">

<g transform="translate(0.000000,279.000000) scale(0.100000,-0.100000)"
fill="#14faca" stroke="none">
<path d="M1440 2404 c-98 -11 -193 -28 -264 -45 l-80 -20 -28 30 c-16 17 -36
31 -44 31 -15 0 -124 -102 -140 -131 -5 -9 -50 -37 -100 -63 -113 -58 -198
-134 -260 -231 -26 -41 -49 -75 -51 -75 -2 0 -21 9 -43 20 -58 29 -165 45
-231 34 -54 -9 -54 -9 -57 -48 -8 -97 42 -253 107 -333 17 -21 51 -51 76 -68
42 -28 45 -33 45 -76 0 -26 11 -91 25 -145 14 -54 25 -100 25 -101 0 -2 -22
-3 -49 -3 -78 0 -221 -51 -221 -79 0 -4 35 -29 78 -56 57 -36 131 -103 282
-256 222 -223 278 -266 440 -332 400 -165 852 -111 1240 149 231 154 379 353
442 594 29 110 32 346 5 454 -42 168 -115 300 -236 428 -149 157 -336 258
-561 303 -74 15 -332 27 -400 19z m280 -49 c250 -33 457 -128 624 -285 342
-322 393 -806 122 -1167 -184 -244 -558 -437 -919 -474 -243 -24 -553 46 -745
170 -66 43 -206 161 -199 168 3 2 22 -3 42 -11 45 -19 75 -20 76 -3 2 19 2 20
-4 54 l-6 33 44 0 c54 0 57 13 20 79 -14 23 -25 44 -25 46 0 11 111 30 180 30
83 0 87 -1 175 -49 80 -43 95 -48 138 -43 99 9 132 58 146 217 7 84 14 117 25
126 24 17 160 36 261 37 50 0 162 -4 250 -8 239 -10 333 13 425 105 44 44 74
93 90 151 12 41 4 36 -20 -12 -31 -59 -102 -127 -168 -157 -56 -26 -62 -27
-240 -26 -100 1 -185 4 -188 7 -4 3 3 21 14 39 11 18 68 120 126 226 112 206
113 215 21 152 -122 -85 -185 -207 -185 -357 l0 -63 -49 0 c-73 0 -217 -28
-283 -54 -32 -13 -58 -23 -58 -21 0 1 9 27 19 58 23 66 60 132 116 206 22 29
44 60 50 67 7 10 5 19 -7 31 -16 15 -16 19 -3 33 23 25 8 50 -29 50 -26 0 -35
6 -51 36 -32 60 -144 156 -231 200 l-81 39 5 65 c5 73 -20 161 -64 232 -20 31
-23 42 -13 49 11 6 105 22 204 33 81 9 301 4 395 -9z m-593 -171 c21 -43 40
-101 46 -142 10 -64 13 -70 42 -81 41 -15 173 -122 208 -168 42 -56 81 -135
78 -159 -1 -12 5 -24 13 -27 12 -5 4 -22 -38 -82 -87 -120 -126 -253 -126
-426 l0 -89 -30 0 c-43 0 -87 -25 -105 -60 -14 -27 -18 -28 -42 -19 -15 5 -52
25 -83 44 -101 61 -238 65 -411 12 l-76 -24 1 36 c1 36 1 36 -36 33 -36 -3
-38 -1 -38 26 0 16 -11 54 -24 83 -31 70 -63 205 -72 297 l-7 72 -60 43 c-95
66 -159 177 -173 302 l-7 54 38 7 c90 17 219 -17 318 -83 l52 -35 -35 37 -35
36 39 76 c58 111 167 220 282 281 l21 11 -19 -56 c-21 -61 -26 -191 -9 -220 8
-14 10 -8 11 27 0 109 53 233 129 302 l44 42 34 -40 c19 -21 50 -71 70 -110z
m-677 -1064 c10 -25 21 -62 25 -83 5 -29 14 -43 36 -55 18 -11 29 -25 29 -38
0 -38 25 -49 68 -31 20 8 56 23 80 33 23 9 44 15 46 13 2 -2 6 -18 9 -35 l6
-31 -46 5 c-32 3 -48 1 -54 -9 -8 -14 -8 -19 6 -68 7 -23 6 -23 -46 -16 -51 7
-59 13 -157 106 -65 63 -131 116 -183 146 l-81 47 39 20 c60 31 114 45 161 43
42 -2 44 -4 62 -47z"/>
<path d="M982 2153 c-23 -9 -45 -67 -45 -121 0 -65 18 -90 28 -40 4 18 14 46
22 62 l15 30 37 -65 c35 -63 36 -63 39 -32 5 46 -15 107 -44 143 -26 31 -30
32 -52 23z"/>
<path d="M315 1756 c-17 -12 -18 -18 -7 -52 17 -57 48 -102 84 -124 18 -10 33
-18 35 -17 1 2 -11 29 -27 61 -38 75 -38 88 -2 80 15 -4 38 -11 51 -16 49 -18
34 16 -23 51 -45 27 -88 34 -111 17z"/>
<path d="M1342 1470 c-6 -10 -37 -38 -68 -62 -51 -38 -55 -43 -36 -51 46 -21
117 23 128 79 8 42 -6 62 -24 34z"/>
<path d="M885 1150 c-33 -16 -68 -29 -77 -30 -24 0 -23 -17 1 -30 46 -24 118
-1 139 45 24 53 20 54 -63 15z"/>
</g>
</svg>
