<?xml version="1.0" standalone="no"?>
<!DOCTYPE svg PUBLIC "-//W3C//DTD SVG 20010904//EN"
 "http://www.w3.org/TR/2001/REC-SVG-20010904/DTD/svg10.dtd">
<svg version="1.0" xmlns="http://www.w3.org/2000/svg"
 width="512.000000pt" height="512.000000pt" viewBox="0 0 512.000000 512.000000"
 preserveAspectRatio="xMidYMid meet">

<g transform="translate(0.000000,512.000000) scale(0.100000,-0.100000)"
fill="#14faca" stroke="none">
<path d="M1006 4898 c-57 -16 -129 -91 -144 -150 -9 -34 -12 -285 -12 -920 l0
-873 -300 -350 c-165 -192 -308 -366 -317 -385 -28 -57 -22 -140 13 -195 21
-32 312 -283 1022 -880 546 -459 1016 -849 1045 -865 144 -82 326 -86 478 -10
57 29 -17 -32 1094 902 690 581 968 821 989 853 35 55 41 138 13 195 -9 19
-152 193 -317 385 l-300 350 0 873 c0 635 -3 886 -12 920 -16 64 -86 134 -151
151 -52 13 -104 7 -152 -16 -16 -9 -262 -246 -545 -529 l-515 -514 -335 0
-335 0 -515 514 c-283 283 -529 521 -545 529 -42 21 -113 28 -159 15z m606
-1203 c-114 -59 -139 -76 -249 -167 l-83 -69 0 358 0 358 215 -215 215 -214
-98 -51z m2228 119 l0 -356 -72 63 c-89 76 -189 143 -286 189 l-72 34 212 213
c117 117 214 213 215 213 2 0 3 -160 3 -356z m-742 -420 c147 -30 290 -104
400 -207 30 -29 149 -161 264 -294 l208 -243 -307 -154 c-170 -85 -337 -174
-373 -197 -36 -23 -114 -92 -175 -153 -122 -124 -193 -228 -251 -369 -77 -190
-94 -319 -94 -719 l0 -266 -91 -76 c-66 -55 -99 -76 -119 -76 -21 0 -53 20
-118 76 l-90 75 -5 342 c-6 384 -14 447 -83 620 -61 154 -130 261 -243 380
-125 132 -203 182 -552 358 l-319 159 208 243 c115 133 233 265 263 292 117
110 241 174 404 210 95 21 969 20 1073 -1z m-1895 -1245 c364 -182 432 -224
514 -313 144 -159 207 -334 201 -565 l-3 -111 -590 496 c-324 273 -590 500
-590 504 0 13 120 149 133 149 6 1 157 -71 335 -160z m3126 85 c35 -42 60 -79
55 -83 -17 -15 -1149 -966 -1168 -981 -18 -14 -19 -10 -14 140 5 121 11 170
28 225 28 90 78 185 135 257 88 113 155 156 525 343 190 96 352 174 360 174 8
0 44 -34 79 -75z"/>
</g>
</svg>
